<svg width="928" height="167" viewBox="0 0 928 167" fill="none" xmlns="http://www.w3.org/2000/svg">
<path d="M727.596 167V0H773.879L840.679 109.027H816.345L881.236 0H927.519L927.996 167H876.703L876.226 77.2971H884.338L839.963 151.97H815.152L768.869 77.2971H778.889V167H727.596Z" fill="black"/>
<path d="M517.256 167L590.259 0H645.608L718.611 167H660.399L606.482 26.72H628.431L574.514 167H517.256ZM560.676 137.894L574.991 97.3371H651.811L666.125 137.894H560.676Z" fill="black"/>
<path d="M426.396 62.0286H500.83V102.586H426.396V62.0286ZM430.213 124.534H513.713V167H374.865V0H510.612V42.4657H430.213V124.534Z" fill="black"/>
<path d="M197.101 167V0H277.5C293.086 0 306.526 2.54476 317.818 7.63429C329.27 12.7238 338.097 20.04 344.3 29.5829C350.502 38.9667 353.604 50.1 353.604 62.9829C353.604 75.8657 350.502 86.999 344.3 96.3829C338.097 105.608 329.27 112.685 317.818 117.616C306.526 122.546 293.086 125.011 277.5 125.011H228.354L253.404 101.87V167H197.101ZM297.062 167L256.028 106.164H315.671L357.182 167H297.062ZM253.404 108.073L228.354 82.5457H273.921C281.714 82.5457 287.44 80.7962 291.098 77.2971C294.915 73.7981 296.824 69.0267 296.824 62.9829C296.824 56.939 294.915 52.1676 291.098 48.6686C287.44 45.1695 281.714 43.42 273.921 43.42H228.354L253.404 17.8929V108.073Z" fill="black"/>
<path d="M0 167V0H82.3072C100.916 0 117.298 3.41953 131.453 10.2586C145.608 16.9386 156.662 26.4814 164.614 38.8871C172.567 51.2929 176.543 66.0843 176.543 83.2614C176.543 100.598 172.567 115.548 164.614 128.113C156.662 140.519 145.608 150.141 131.453 156.98C117.298 163.66 100.916 167 82.3072 167H0ZM56.3029 123.103H79.9214C87.8738 123.103 94.7924 121.592 100.677 118.57C106.721 115.548 111.413 111.095 114.753 105.21C118.093 99.1662 119.763 91.85 119.763 83.2614C119.763 74.8319 118.093 67.6748 114.753 61.79C111.413 55.9052 106.721 51.4519 100.677 48.43C94.7924 45.4081 87.8738 43.8971 79.9214 43.8971H56.3029V123.103Z" fill="black"/>
</svg>
